<?xml version="1.0" encoding="utf-8"?>
<!-- Generator: Adobe Illustrator 28.1.0, SVG Export Plug-In . SVG Version: 6.00 Build 0)  -->
<svg version="1.1" id="Calque_1" xmlns="http://www.w3.org/2000/svg" xmlns:xlink="http://www.w3.org/1999/xlink" x="0px" y="0px"
	 viewBox="0 0 388.35 130.39" style="enable-background:new 0 0 388.35 130.39;" xml:space="preserve">
<style type="text/css">
	.st0{fill:#AA1A17;}
	.st1{fill:#DBB102;}
</style>
<g>
	<g>
		<path class="st0" d="M32.31,33.41c0.35-0.36,0.69-0.71,1.04-1.05c0.34-0.34,0.65-0.63,0.91-0.88c0.58-0.54,1.13-0.98,1.67-1.3
			c0.53-0.32,1.03-0.54,1.5-0.64c0.47-0.1,0.9-0.1,1.3,0.01c0.39,0.11,0.74,0.32,1.04,0.64c0.15,0.16,0.27,0.33,0.35,0.52
			c0.08,0.19,0.14,0.38,0.17,0.59c0.03,0.21,0.02,0.42-0.01,0.64c-0.03,0.22-0.09,0.44-0.18,0.67c0.24-0.13,0.48-0.22,0.73-0.28
			c0.25-0.05,0.5-0.07,0.74-0.04c0.24,0.03,0.47,0.09,0.7,0.2c0.22,0.11,0.42,0.26,0.6,0.45c0.34,0.36,0.55,0.77,0.65,1.21
			c0.09,0.45,0.06,0.93-0.1,1.45c-0.16,0.52-0.45,1.07-0.86,1.66c-0.42,0.59-0.96,1.2-1.64,1.83c-0.23,0.22-0.5,0.46-0.82,0.74
			c-0.31,0.28-0.64,0.56-0.97,0.84L32.31,33.41z M37.15,34.26l0.13-0.12c0.16-0.15,0.29-0.3,0.39-0.45c0.1-0.15,0.17-0.29,0.2-0.42
			c0.03-0.13,0.04-0.26,0-0.38c-0.03-0.12-0.09-0.23-0.19-0.33c-0.09-0.09-0.19-0.16-0.3-0.19c-0.11-0.03-0.24-0.04-0.37-0.01
			c-0.14,0.03-0.28,0.08-0.43,0.17c-0.15,0.09-0.3,0.2-0.46,0.35c-0.03,0.03-0.05,0.05-0.07,0.07c-0.02,0.02-0.05,0.04-0.07,0.07
			L37.15,34.26z M39.75,37.03c0.04-0.04,0.09-0.08,0.13-0.13c0.04-0.04,0.09-0.08,0.13-0.12c0.19-0.18,0.34-0.35,0.46-0.52
			c0.12-0.17,0.2-0.33,0.24-0.48c0.04-0.15,0.05-0.29,0.02-0.42c-0.03-0.13-0.09-0.25-0.19-0.36c-0.09-0.09-0.19-0.15-0.3-0.18
			c-0.12-0.03-0.25-0.02-0.39,0.01c-0.14,0.04-0.3,0.11-0.46,0.21c-0.16,0.1-0.34,0.24-0.52,0.41l-0.31,0.29L39.75,37.03z"/>
		<path class="st0" d="M52.14,26.65c0.29,0.56,0.47,1.11,0.54,1.65c0.07,0.54,0.02,1.06-0.14,1.54c-0.16,0.49-0.44,0.95-0.83,1.37
			c-0.39,0.42-0.9,0.8-1.53,1.13c-0.59,0.31-1.17,0.51-1.71,0.59c-0.55,0.08-1.06,0.05-1.53-0.09c-0.48-0.14-0.91-0.39-1.3-0.74
			c-0.39-0.35-0.74-0.8-1.03-1.36l-2.86-5.41l2.73-1.44l2.82,5.34c0.12,0.23,0.25,0.41,0.39,0.54c0.14,0.13,0.28,0.23,0.44,0.28
			c0.15,0.05,0.31,0.07,0.47,0.04c0.16-0.02,0.32-0.08,0.49-0.17c0.17-0.09,0.3-0.19,0.41-0.31c0.11-0.12,0.19-0.25,0.24-0.4
			c0.05-0.15,0.06-0.31,0.03-0.49c-0.02-0.18-0.09-0.37-0.2-0.57l-2.87-5.44l2.65-1.4L52.14,26.65z"/>
		<path class="st0" d="M53.84,19.75c0.42-0.12,0.84-0.23,1.26-0.33c0.41-0.1,0.83-0.2,1.24-0.29c0.85-0.19,1.63-0.27,2.32-0.26
			c0.69,0.01,1.29,0.12,1.81,0.32c0.51,0.2,0.93,0.49,1.26,0.86c0.33,0.38,0.55,0.83,0.66,1.37c0.06,0.27,0.08,0.53,0.08,0.78
			c-0.01,0.25-0.05,0.5-0.12,0.73c-0.07,0.23-0.17,0.46-0.3,0.68c-0.13,0.22-0.29,0.43-0.47,0.63c0.4,0.5,0.81,1.03,1.23,1.61
			c0.42,0.58,0.83,1.2,1.24,1.85l-3.29,0.71c-0.26-0.43-0.54-0.86-0.84-1.3c-0.3-0.44-0.62-0.87-0.96-1.3
			c-0.1,0.04-0.2,0.07-0.29,0.1c-0.1,0.03-0.2,0.06-0.3,0.09l0.61,2.81l-3.01,0.65L53.84,19.75z M57.85,23.73
			c0.02-0.01,0.04-0.01,0.05-0.01c0.01,0,0.03-0.01,0.06-0.01c0.26-0.06,0.48-0.13,0.67-0.23c0.19-0.1,0.34-0.21,0.45-0.33
			c0.11-0.12,0.19-0.26,0.23-0.42c0.04-0.16,0.04-0.32,0-0.5c-0.04-0.17-0.1-0.31-0.2-0.43c-0.1-0.12-0.23-0.21-0.38-0.28
			c-0.16-0.07-0.34-0.1-0.55-0.11c-0.21-0.01-0.45,0.02-0.71,0.08c-0.02,0-0.04,0.01-0.06,0.01c-0.01,0-0.03,0.01-0.05,0.01
			L57.85,23.73z"/>
		<path class="st0" d="M74.42,27.46c-0.51,0.22-1.08,0.39-1.7,0.51c-0.62,0.12-1.3,0.15-2.03,0.11c-0.83-0.05-1.57-0.21-2.21-0.49
			c-0.64-0.28-1.18-0.65-1.61-1.11c-0.43-0.46-0.75-1.01-0.95-1.63c-0.2-0.63-0.29-1.31-0.24-2.06c0.03-0.55,0.13-1.06,0.28-1.53
			c0.16-0.47,0.37-0.89,0.63-1.27c0.26-0.38,0.58-0.71,0.93-1c0.36-0.29,0.75-0.52,1.18-0.7c0.43-0.18,0.89-0.32,1.38-0.4
			c0.49-0.08,1.01-0.11,1.54-0.08c0.63,0.04,1.22,0.15,1.78,0.33c0.55,0.18,1.06,0.44,1.53,0.78l-0.85,2.41
			c-0.17-0.13-0.35-0.25-0.54-0.35s-0.4-0.19-0.62-0.26c-0.22-0.07-0.44-0.13-0.66-0.17c-0.22-0.04-0.44-0.07-0.65-0.08
			c-0.25-0.01-0.49-0.01-0.72,0.03c-0.23,0.03-0.44,0.09-0.64,0.17c-0.2,0.08-0.38,0.19-0.55,0.32c-0.17,0.13-0.31,0.29-0.44,0.48
			c-0.12,0.18-0.22,0.4-0.3,0.64c-0.07,0.24-0.12,0.51-0.14,0.81c-0.02,0.38,0.01,0.72,0.08,1.03c0.08,0.31,0.21,0.58,0.38,0.81
			c0.18,0.23,0.4,0.41,0.67,0.54c0.27,0.13,0.59,0.21,0.95,0.23c0.12,0.01,0.23,0.01,0.34,0.01c0.11,0,0.21-0.01,0.31-0.03
			l0.06-1.01l-1.29-0.07l0.14-2.38l4.24,0.24L74.42,27.46z"/>
		<path class="st0" d="M84.88,23.61l-3.25-1.05l-0.36,1.1l3.07,1l-0.78,2.41l-3.07-1l-0.37,1.13l3.25,1.05l-0.78,2.41l-6.18-2
			l3.07-9.47l6.18,2L84.88,23.61z"/>
		<path class="st0" d="M89.77,23.05c0.38,0.21,0.76,0.43,1.13,0.64c0.37,0.22,0.73,0.43,1.09,0.66c0.74,0.46,1.35,0.94,1.84,1.43
			c0.48,0.49,0.84,0.99,1.07,1.49c0.23,0.5,0.33,1,0.3,1.5c-0.03,0.5-0.19,0.98-0.48,1.44c-0.15,0.23-0.31,0.44-0.49,0.61
			c-0.18,0.18-0.38,0.32-0.59,0.44c-0.21,0.12-0.45,0.21-0.69,0.28c-0.25,0.07-0.5,0.11-0.78,0.12c-0.06,0.64-0.14,1.31-0.25,2.01
			c-0.11,0.71-0.24,1.44-0.4,2.2l-2.86-1.79c0.11-0.49,0.22-1,0.31-1.52c0.09-0.52,0.17-1.06,0.22-1.6
			c-0.1-0.04-0.19-0.09-0.28-0.14c-0.09-0.05-0.18-0.1-0.28-0.15l-1.52,2.43l-2.61-1.64L89.77,23.05z M89.87,28.69
			c0.02,0.01,0.04,0.02,0.05,0.03c0.01,0.01,0.03,0.02,0.05,0.03c0.23,0.14,0.44,0.24,0.64,0.31c0.2,0.06,0.39,0.09,0.56,0.08
			s0.32-0.06,0.46-0.14c0.14-0.08,0.25-0.2,0.35-0.36c0.09-0.15,0.14-0.3,0.16-0.45c0.01-0.15-0.01-0.31-0.08-0.47
			c-0.07-0.16-0.17-0.31-0.32-0.46c-0.15-0.15-0.33-0.3-0.56-0.44c-0.02-0.01-0.04-0.02-0.05-0.03c-0.01-0.01-0.03-0.02-0.05-0.03
			L89.87,28.69z"/>
		<path class="st0" d="M95.28,35.31c0.09,0.44,0.23,0.86,0.42,1.24c0.19,0.38,0.42,0.71,0.68,0.98c0.11,0.11,0.21,0.21,0.31,0.27
			c0.09,0.07,0.18,0.11,0.26,0.14c0.08,0.03,0.15,0.03,0.22,0.01s0.13-0.06,0.19-0.11c0.09-0.09,0.14-0.21,0.13-0.37
			c-0.01-0.16-0.04-0.33-0.1-0.54c-0.06-0.2-0.14-0.43-0.24-0.67c-0.1-0.25-0.19-0.5-0.27-0.78c-0.08-0.27-0.15-0.55-0.2-0.85
			s-0.06-0.59-0.02-0.88s0.12-0.59,0.26-0.89c0.14-0.3,0.35-0.58,0.64-0.86c0.35-0.33,0.72-0.57,1.12-0.71
			c0.4-0.14,0.81-0.19,1.24-0.14c0.42,0.05,0.85,0.19,1.28,0.42c0.43,0.23,0.84,0.56,1.25,0.98c0.39,0.41,0.7,0.81,0.93,1.22
			c0.23,0.41,0.4,0.83,0.51,1.27l-2.17,1.18c-0.11-0.36-0.24-0.7-0.4-1.02c-0.16-0.32-0.36-0.61-0.61-0.87
			c-0.08-0.09-0.17-0.16-0.25-0.22c-0.08-0.06-0.16-0.09-0.23-0.12c-0.07-0.02-0.14-0.03-0.2-0.01c-0.06,0.01-0.12,0.05-0.18,0.1
			c-0.09,0.08-0.13,0.2-0.11,0.35c0.01,0.15,0.05,0.32,0.12,0.52c0.07,0.2,0.15,0.42,0.24,0.66c0.1,0.24,0.19,0.5,0.27,0.77
			c0.09,0.27,0.15,0.55,0.2,0.84c0.05,0.29,0.05,0.59,0.01,0.88c-0.04,0.3-0.13,0.6-0.27,0.89c-0.14,0.3-0.36,0.59-0.66,0.87
			c-0.35,0.34-0.73,0.57-1.15,0.71c-0.42,0.14-0.85,0.18-1.28,0.12c-0.44-0.05-0.88-0.2-1.32-0.44c-0.44-0.24-0.86-0.56-1.26-0.98
			c-0.44-0.46-0.78-0.91-1.02-1.36c-0.24-0.45-0.41-0.92-0.5-1.42L95.28,35.31z"/>
	</g>
	<g>
		<path class="st0" d="M47.78,105.95l1.98,1l-0.89,1.77l-4.09-2.05l3.42-6.8l2.11,1.06L47.78,105.95z"/>
		<path class="st0" d="M56.99,103.35c0.33,0.09,0.64,0.22,0.94,0.38c0.3,0.16,0.56,0.35,0.8,0.57c0.24,0.22,0.45,0.47,0.62,0.74
			c0.18,0.28,0.31,0.58,0.4,0.9c0.09,0.33,0.14,0.67,0.13,1.04c0,0.37-0.06,0.76-0.18,1.17c-0.12,0.43-0.28,0.81-0.48,1.14
			c-0.2,0.33-0.42,0.61-0.68,0.85c-0.25,0.24-0.53,0.43-0.83,0.57c-0.3,0.15-0.62,0.25-0.95,0.31c-0.33,0.06-0.67,0.08-1.02,0.05
			c-0.35-0.02-0.7-0.09-1.05-0.19c-0.33-0.09-0.64-0.22-0.94-0.38c-0.3-0.16-0.56-0.35-0.81-0.57c-0.24-0.22-0.45-0.47-0.63-0.74
			c-0.18-0.28-0.31-0.58-0.4-0.9c-0.09-0.32-0.14-0.67-0.13-1.04c0-0.37,0.06-0.76,0.18-1.17c0.12-0.43,0.28-0.8,0.48-1.13
			c0.2-0.33,0.43-0.61,0.68-0.85s0.53-0.43,0.84-0.57c0.3-0.15,0.62-0.25,0.95-0.31c0.33-0.06,0.67-0.08,1.02-0.06
			C56.29,103.19,56.64,103.25,56.99,103.35z M56.35,105.27c-0.19-0.06-0.39-0.07-0.59-0.05c-0.2,0.02-0.4,0.09-0.58,0.2
			c-0.18,0.11-0.35,0.27-0.5,0.47c-0.15,0.2-0.27,0.46-0.36,0.77c-0.09,0.33-0.13,0.62-0.11,0.88s0.08,0.49,0.18,0.68
			c0.1,0.19,0.23,0.35,0.4,0.48c0.17,0.13,0.35,0.22,0.55,0.28c0.19,0.06,0.39,0.07,0.59,0.05c0.2-0.02,0.4-0.09,0.58-0.2
			c0.18-0.11,0.35-0.27,0.5-0.47c0.15-0.2,0.27-0.46,0.36-0.77c0.09-0.32,0.13-0.61,0.11-0.87c-0.02-0.26-0.08-0.49-0.18-0.68
			c-0.1-0.19-0.23-0.35-0.4-0.48C56.73,105.42,56.55,105.33,56.35,105.27z"/>
		<path class="st0" d="M68.58,105.13c-0.29,1.24-0.66,2.48-1.1,3.74c-0.45,1.26-0.94,2.49-1.48,3.71l-2.89-0.2
			c-0.37-1.28-0.69-2.57-0.97-3.88c-0.27-1.31-0.47-2.59-0.59-3.85l2.42,0.16c0.03,0.42,0.07,0.85,0.12,1.28
			c0.05,0.43,0.11,0.87,0.17,1.31c0.07,0.44,0.14,0.88,0.22,1.32c0.08,0.44,0.17,0.88,0.26,1.32c0.15-0.42,0.3-0.84,0.44-1.27
			c0.14-0.43,0.27-0.85,0.4-1.28c0.13-0.43,0.24-0.85,0.35-1.28c0.11-0.42,0.21-0.84,0.29-1.26L68.58,105.13z"/>
		<path class="st0" d="M75.01,106.37l-2.6,0.29l0.1,0.88l2.45-0.28l0.22,1.93l-2.45,0.28l0.1,0.9l2.6-0.29l0.22,1.93l-4.94,0.56
			l-0.86-7.56l4.94-0.56L75.01,106.37z"/>
		<path class="st0" d="M76.35,104.16c0.32-0.11,0.63-0.22,0.94-0.33c0.31-0.1,0.62-0.2,0.93-0.3c0.64-0.19,1.22-0.31,1.75-0.34
			c0.53-0.03,0.99,0.01,1.4,0.13c0.4,0.12,0.74,0.31,1.01,0.58s0.47,0.6,0.59,1.01c0.06,0.2,0.1,0.4,0.11,0.59
			c0.01,0.19-0.01,0.38-0.04,0.56c-0.04,0.18-0.1,0.36-0.19,0.54c-0.09,0.17-0.19,0.34-0.32,0.51c0.34,0.35,0.68,0.74,1.03,1.16
			c0.35,0.42,0.71,0.86,1.06,1.34l-2.47,0.74c-0.22-0.31-0.47-0.63-0.72-0.94c-0.26-0.32-0.53-0.63-0.81-0.93
			c-0.07,0.03-0.15,0.06-0.22,0.09c-0.07,0.03-0.15,0.06-0.23,0.09l0.64,2.1l-2.26,0.68L76.35,104.16z M79.65,106.95
			c0.02-0.01,0.03-0.01,0.04-0.01c0.01,0,0.02-0.01,0.04-0.01c0.2-0.06,0.36-0.13,0.5-0.21c0.14-0.08,0.25-0.18,0.33-0.28
			c0.08-0.1,0.13-0.21,0.15-0.34c0.02-0.12,0.01-0.25-0.03-0.38c-0.04-0.13-0.1-0.23-0.18-0.32c-0.08-0.09-0.18-0.15-0.31-0.19
			c-0.12-0.04-0.26-0.06-0.43-0.05c-0.16,0.01-0.34,0.04-0.53,0.1c-0.02,0.01-0.03,0.01-0.04,0.01c-0.01,0-0.02,0.01-0.04,0.01
			L79.65,106.95z"/>
		<path class="st0" d="M86.34,106.28c0.35,0.03,0.68,0.02,1-0.04c0.32-0.06,0.61-0.15,0.87-0.28c0.11-0.06,0.2-0.11,0.27-0.17
			c0.07-0.05,0.12-0.11,0.16-0.16c0.04-0.05,0.06-0.11,0.06-0.16c0-0.05-0.01-0.11-0.04-0.16c-0.05-0.09-0.13-0.15-0.24-0.18
			c-0.12-0.03-0.25-0.04-0.42-0.04c-0.16,0-0.34,0.01-0.55,0.03s-0.41,0.03-0.63,0.03c-0.22,0-0.44-0.01-0.66-0.04
			c-0.23-0.03-0.44-0.09-0.65-0.18c-0.21-0.09-0.41-0.22-0.59-0.38c-0.19-0.17-0.35-0.39-0.49-0.66c-0.17-0.33-0.26-0.65-0.28-0.98
			c-0.02-0.32,0.04-0.64,0.17-0.94c0.13-0.3,0.32-0.58,0.59-0.84c0.26-0.26,0.6-0.5,0.99-0.7c0.38-0.2,0.75-0.34,1.1-0.41
			c0.35-0.08,0.7-0.11,1.04-0.1l0.39,1.85c-0.29,0-0.56,0.02-0.84,0.07c-0.27,0.05-0.53,0.13-0.77,0.25
			c-0.08,0.04-0.15,0.09-0.21,0.13c-0.06,0.05-0.1,0.09-0.13,0.14s-0.05,0.1-0.05,0.15c0,0.05,0.01,0.1,0.03,0.15
			c0.04,0.08,0.12,0.14,0.23,0.16c0.11,0.02,0.25,0.03,0.41,0.03c0.16,0,0.34-0.01,0.54-0.03c0.2-0.02,0.41-0.03,0.62-0.03
			c0.22,0,0.44,0.01,0.66,0.04c0.22,0.03,0.44,0.09,0.65,0.18c0.21,0.09,0.41,0.22,0.6,0.39c0.19,0.17,0.35,0.39,0.5,0.67
			c0.17,0.33,0.26,0.66,0.27,1c0.01,0.34-0.06,0.66-0.19,0.97c-0.14,0.31-0.34,0.6-0.61,0.87c-0.27,0.27-0.6,0.51-0.99,0.71
			c-0.43,0.22-0.84,0.37-1.22,0.45c-0.38,0.08-0.76,0.09-1.15,0.05L86.34,106.28z"/>
	</g>
</g>
<path class="st0" d="M88.7,63.04H47.51c0-8.31,9.22-15.05,20.6-15.05C79.48,47.98,88.7,54.72,88.7,63.04z"/>
<path class="st1" d="M86.29,72.6H49.91c-1.98,0-3.58-1.6-3.58-3.58v0c0-1.98,1.6-3.58,3.58-3.58h36.38c1.98,0,3.58,1.6,3.58,3.58v0
	C89.87,71,88.27,72.6,86.29,72.6z"/>
<path class="st0" d="M89.81,77.67c-0.28,1.02-0.59,2.02-0.91,2.99c-0.34,1.02-1.66,1.74-3.18,1.74H50.48
	c-1.52,0-2.85-0.72-3.18-1.74c-0.32-0.97-0.62-1.97-0.91-2.99C46.01,76.29,47.56,75,49.6,75h37C88.65,75,90.2,76.29,89.81,77.67z"/>
<path class="st0" d="M68.1,127.57c-34.39,0-62.38-27.98-62.38-62.38C5.73,30.8,33.71,2.82,68.1,2.82
	c34.39,0,62.38,27.98,62.38,62.38C130.48,99.59,102.5,127.57,68.1,127.57z M68.1,6.33C35.64,6.33,9.24,32.74,9.24,65.2
	c0,32.46,26.41,58.87,58.87,58.87c32.46,0,58.87-26.41,58.87-58.87C126.97,32.74,100.56,6.33,68.1,6.33z"/>
<path class="st1" d="M39.82,98.05L39.82,98.05c-0.22,0-0.42-0.08-0.59-0.22c-6.38-5.65-11.09-13.14-13.31-21.62
	c-0.14-0.55,0.28-1.09,0.85-1.09h0.01c0.4,0,0.75,0.27,0.85,0.66c2.13,8.15,6.65,15.33,12.78,20.75
	C41.01,97.05,40.62,98.05,39.82,98.05z"/>
<path class="st1" d="M110.28,76.2c-2.21,8.49-6.93,15.97-13.31,21.62c-0.16,0.14-0.37,0.22-0.59,0.22h0c-0.8,0-1.19-0.99-0.59-1.52
	c6.13-5.42,10.65-12.6,12.78-20.75c0.1-0.39,0.45-0.66,0.85-0.66h0.01C110,75.12,110.42,75.65,110.28,76.2z"/>
<path class="st1" d="M110.71,63.12L110.71,63.12c-0.46,0-0.84-0.36-0.87-0.82c-0.46-6.66-2.48-12.89-5.7-18.34
	c-0.35-0.58,0.07-1.32,0.75-1.32h0c0.31,0,0.6,0.16,0.76,0.43c3.36,5.68,5.47,12.18,5.94,19.13
	C111.62,62.7,111.21,63.12,110.71,63.12z"/>
<path class="st1" d="M32.07,43.96c-3.22,5.45-5.24,11.68-5.7,18.34c-0.03,0.46-0.41,0.82-0.87,0.82h0c-0.5,0-0.91-0.43-0.88-0.93
	c0.47-6.94,2.58-13.45,5.94-19.13c0.16-0.27,0.45-0.43,0.76-0.43h0C32,42.64,32.41,43.38,32.07,43.96z"/>
<polygon class="st1" points="110.81,64.28 112.35,67.4 115.79,67.9 113.3,70.33 113.89,73.76 110.81,72.14 107.73,73.76 
	108.32,70.33 105.83,67.9 109.27,67.4 "/>
<polygon class="st1" points="25.39,64.28 26.93,67.4 30.37,67.9 27.88,70.33 28.47,73.76 25.39,72.14 22.31,73.76 22.9,70.33 
	20.41,67.9 23.85,67.4 "/>
<path class="st0" d="M151.76,24.59c1.87-0.09,3.72-0.16,5.53-0.21c1.81-0.05,3.39-0.08,4.74-0.08c2.98,0,5.61,0.24,7.89,0.72
	c2.29,0.48,4.2,1.18,5.75,2.1c1.55,0.92,2.72,2.04,3.52,3.35c0.8,1.31,1.2,2.79,1.2,4.44c0,0.82-0.12,1.6-0.37,2.32
	c-0.25,0.73-0.6,1.41-1.05,2.04c-0.46,0.63-1.01,1.2-1.66,1.72c-0.65,0.52-1.38,0.97-2.21,1.35c0.98,0.25,1.88,0.62,2.71,1.12
	c0.82,0.5,1.53,1.1,2.13,1.79c0.6,0.69,1.06,1.47,1.39,2.34c0.33,0.87,0.5,1.79,0.5,2.77c0,1.86-0.45,3.52-1.35,4.98
	c-0.9,1.46-2.24,2.7-4.01,3.72c-1.77,1.02-3.98,1.79-6.62,2.33c-2.64,0.53-5.7,0.8-9.17,0.8c-1.19,0-2.57-0.02-4.14-0.07
	c-1.57-0.04-3.17-0.11-4.79-0.2V24.59z M162.8,39.33h0.66c0.84,0,1.58-0.07,2.23-0.22s1.19-0.36,1.63-0.64
	c0.44-0.28,0.77-0.63,1-1.04c0.23-0.41,0.34-0.87,0.34-1.38c0-0.47-0.11-0.9-0.33-1.29c-0.22-0.38-0.55-0.71-0.98-0.98
	c-0.44-0.27-0.97-0.48-1.6-0.63s-1.36-0.22-2.18-0.22c-0.14,0-0.27,0-0.38,0s-0.24,0-0.38,0V39.33z M162.8,53.59
	c0.23,0,0.46,0,0.68,0c0.23,0,0.45,0,0.66,0c0.96,0,1.82-0.08,2.57-0.24c0.75-0.16,1.38-0.38,1.88-0.68c0.5-0.3,0.88-0.66,1.14-1.09
	c0.26-0.43,0.39-0.91,0.39-1.46c0-0.47-0.12-0.9-0.37-1.27c-0.25-0.38-0.61-0.7-1.1-0.96c-0.49-0.26-1.09-0.46-1.8-0.61
	c-0.71-0.14-1.54-0.21-2.48-0.21h-1.58V53.59z"/>
<path class="st0" d="M217.57,47.13c0,2.36-0.36,4.5-1.09,6.41c-0.73,1.91-1.79,3.53-3.18,4.87c-1.39,1.34-3.11,2.37-5.16,3.09
	c-2.05,0.72-4.4,1.08-7.04,1.08c-2.52,0-4.76-0.34-6.71-1.02c-1.95-0.68-3.59-1.67-4.93-2.97c-1.33-1.3-2.34-2.87-3.03-4.73
	c-0.69-1.86-1.04-3.96-1.04-6.31V24.59h11.56v22.65c0,0.96,0.11,1.79,0.34,2.48c0.23,0.69,0.55,1.26,0.96,1.69
	c0.41,0.44,0.9,0.76,1.47,0.96c0.57,0.2,1.2,0.3,1.91,0.3c0.7,0,1.34-0.1,1.92-0.3c0.58-0.2,1.07-0.51,1.48-0.92
	c0.41-0.41,0.73-0.93,0.96-1.56c0.23-0.63,0.34-1.37,0.34-2.23V24.59h11.24V47.13z"/>
<path class="st0" d="M222.3,24.59c1.65-0.09,3.27-0.16,4.87-0.21c1.6-0.05,3.19-0.08,4.77-0.08c3.28,0,6.17,0.3,8.7,0.91
	c2.52,0.6,4.65,1.48,6.37,2.61c1.72,1.14,3.03,2.53,3.93,4.16c0.89,1.64,1.34,3.49,1.34,5.56c0,1.03-0.11,2.01-0.34,2.93
	c-0.23,0.92-0.57,1.78-1.01,2.59c-0.45,0.81-0.99,1.56-1.64,2.26c-0.65,0.7-1.39,1.34-2.23,1.92c1.09,2.14,2.16,4.44,3.22,6.9
	c1.06,2.46,2.09,5.06,3.09,7.79h-12.64c-0.61-1.79-1.3-3.6-2.05-5.45c-0.75-1.85-1.58-3.69-2.47-5.53
	c-0.39,0.05-0.77,0.09-1.16,0.12c-0.38,0.03-0.78,0.06-1.18,0.09v10.77H222.3V24.59z M233.86,42.35c0.09,0,0.16,0,0.21,0
	c0.05,0,0.12,0,0.21,0c1,0,1.89-0.1,2.65-0.3c0.76-0.2,1.41-0.48,1.92-0.85c0.52-0.37,0.91-0.82,1.17-1.36
	c0.26-0.54,0.4-1.15,0.4-1.83c0-0.65-0.13-1.23-0.4-1.74c-0.26-0.52-0.66-0.96-1.17-1.32c-0.52-0.37-1.16-0.65-1.92-0.84
	c-0.77-0.19-1.65-0.29-2.65-0.29c-0.09,0-0.16,0-0.21,0c-0.05,0-0.12,0-0.21,0V42.35z"/>
<path class="st0" d="M289.14,59.45c-1.87,0.95-3.96,1.7-6.25,2.27c-2.29,0.57-4.83,0.85-7.59,0.85c-3.12,0-5.91-0.45-8.38-1.35
	c-2.47-0.9-4.56-2.17-6.27-3.81c-1.71-1.64-3.01-3.61-3.91-5.91c-0.9-2.3-1.35-4.86-1.35-7.66c0-2.07,0.25-4,0.74-5.79
	c0.49-1.8,1.19-3.43,2.1-4.9c0.91-1.47,2.01-2.78,3.28-3.93c1.28-1.15,2.71-2.11,4.28-2.89c1.58-0.78,3.27-1.37,5.1-1.79
	c1.82-0.41,3.74-0.62,5.75-0.62c2.37,0,4.61,0.28,6.73,0.85s4.08,1.43,5.88,2.59l-2.65,9.2c-0.65-0.46-1.35-0.85-2.11-1.2
	c-0.76-0.34-1.55-0.63-2.38-0.85c-0.82-0.23-1.66-0.4-2.51-0.51s-1.67-0.17-2.46-0.17c-0.95,0-1.84,0.08-2.69,0.25
	s-1.64,0.42-2.38,0.76c-0.74,0.34-1.4,0.78-2,1.31c-0.6,0.53-1.1,1.16-1.52,1.88s-0.74,1.53-0.97,2.44
	c-0.23,0.91-0.34,1.93-0.34,3.05c0,1.42,0.18,2.7,0.54,3.85c0.36,1.15,0.89,2.13,1.6,2.94c0.71,0.81,1.59,1.45,2.63,1.89
	c1.04,0.45,2.25,0.67,3.61,0.67c0.46,0,0.88-0.01,1.27-0.04c0.39-0.03,0.78-0.08,1.17-0.17v-3.78h-4.86v-8.93h15.95V59.45z"/>
<path class="st0" d="M318.23,34.1H305.4v4.34h12.11v9.51H305.4v4.47h12.82v9.51h-24.38V24.59h24.38V34.1z"/>
<path class="st0" d="M322.74,24.59c1.65-0.09,3.27-0.16,4.87-0.21c1.6-0.05,3.19-0.08,4.77-0.08c3.28,0,6.17,0.3,8.7,0.91
	s4.65,1.48,6.37,2.61c1.72,1.14,3.03,2.53,3.93,4.16c0.89,1.64,1.34,3.49,1.34,5.56c0,1.03-0.11,2.01-0.34,2.93
	c-0.23,0.92-0.57,1.78-1.01,2.59c-0.45,0.81-0.99,1.56-1.64,2.26c-0.65,0.7-1.39,1.34-2.23,1.92c1.09,2.14,2.16,4.44,3.22,6.9
	c1.06,2.46,2.09,5.06,3.09,7.79h-12.64c-0.61-1.79-1.3-3.6-2.05-5.45c-0.75-1.85-1.58-3.69-2.47-5.53
	c-0.39,0.05-0.77,0.09-1.16,0.12c-0.38,0.03-0.78,0.06-1.18,0.09v10.77h-11.56V24.59z M334.3,42.35c0.09,0,0.16,0,0.21,0
	c0.05,0,0.12,0,0.21,0c1,0,1.89-0.1,2.65-0.3c0.76-0.2,1.41-0.48,1.92-0.85s0.91-0.82,1.17-1.36c0.26-0.54,0.4-1.15,0.4-1.83
	c0-0.65-0.13-1.23-0.4-1.74c-0.26-0.52-0.66-0.96-1.17-1.32s-1.16-0.65-1.92-0.84c-0.77-0.19-1.65-0.29-2.65-0.29
	c-0.09,0-0.16,0-0.21,0c-0.05,0-0.12,0-0.21,0V42.35z"/>
<path class="st0" d="M358.84,50.47c1.44,0.91,2.92,1.6,4.45,2.08c1.53,0.47,3.01,0.71,4.43,0.71c0.6,0,1.11-0.04,1.54-0.12
	c0.43-0.08,0.78-0.19,1.06-0.34c0.28-0.15,0.48-0.34,0.6-0.57c0.12-0.23,0.18-0.49,0.18-0.79c0-0.49-0.22-0.93-0.66-1.31
	c-0.44-0.38-1.01-0.76-1.72-1.12c-0.71-0.36-1.52-0.73-2.44-1.1c-0.92-0.38-1.85-0.81-2.8-1.29c-0.95-0.48-1.88-1.04-2.8-1.67
	c-0.92-0.63-1.73-1.37-2.44-2.23c-0.71-0.86-1.28-1.86-1.72-3.01c-0.44-1.15-0.66-2.47-0.66-3.98c0-1.8,0.33-3.43,0.98-4.89
	c0.66-1.45,1.6-2.69,2.82-3.72s2.71-1.81,4.45-2.37c1.74-0.55,3.71-0.83,5.9-0.83c2.12,0,4.02,0.22,5.71,0.66
	c1.69,0.44,3.28,1.08,4.77,1.92l-2.46,8.93c-1.24-0.65-2.51-1.18-3.8-1.59c-1.29-0.41-2.61-0.62-3.93-0.62
	c-0.46,0-0.86,0.04-1.22,0.11c-0.36,0.07-0.66,0.17-0.9,0.32c-0.24,0.14-0.43,0.32-0.56,0.53c-0.13,0.21-0.2,0.46-0.2,0.74
	c0,0.46,0.22,0.86,0.66,1.22c0.44,0.36,1.01,0.71,1.72,1.05c0.71,0.34,1.52,0.7,2.43,1.06c0.91,0.37,1.84,0.79,2.79,1.26
	c0.95,0.47,1.88,1.02,2.79,1.65c0.91,0.63,1.72,1.38,2.43,2.26c0.71,0.88,1.28,1.89,1.72,3.05c0.44,1.16,0.66,2.5,0.66,4.05
	c0,1.82-0.36,3.47-1.08,4.95c-0.72,1.48-1.72,2.75-3.01,3.8c-1.29,1.05-2.83,1.86-4.62,2.44c-1.8,0.58-3.77,0.87-5.92,0.87
	c-2.38,0-4.49-0.26-6.33-0.79c-1.84-0.52-3.55-1.3-5.12-2.34L358.84,50.47z"/>
<path class="st1" d="M163.32,96.11h10.88v9.7h-22.44V68.47h11.56V96.11z"/>
<path class="st1" d="M195.14,67.82c1.68,0,3.33,0.18,4.94,0.54c1.61,0.36,3.13,0.89,4.56,1.6c1.43,0.71,2.74,1.59,3.94,2.65
	c1.2,1.06,2.24,2.29,3.11,3.71c0.88,1.41,1.55,2.99,2.04,4.74c0.48,1.75,0.72,3.67,0.72,5.75c0,2.19-0.25,4.2-0.74,6.02
	c-0.49,1.82-1.17,3.46-2.05,4.91c-0.88,1.45-1.93,2.73-3.15,3.82c-1.23,1.1-2.58,2.01-4.06,2.73c-1.48,0.73-3.06,1.27-4.74,1.63
	c-1.68,0.36-3.42,0.54-5.2,0.54c-1.68,0-3.33-0.18-4.94-0.54c-1.61-0.36-3.14-0.89-4.57-1.6c-1.44-0.71-2.75-1.59-3.95-2.65
	c-1.2-1.06-2.23-2.29-3.1-3.71c-0.87-1.41-1.55-2.99-2.04-4.74c-0.49-1.75-0.74-3.67-0.74-5.75c0-2.17,0.25-4.17,0.74-5.99
	c0.49-1.82,1.18-3.46,2.06-4.91c0.88-1.45,1.94-2.73,3.17-3.82c1.23-1.1,2.58-2.01,4.06-2.73c1.48-0.73,3.06-1.27,4.74-1.64
	C191.62,68,193.35,67.82,195.14,67.82z M194.72,77.72c-0.98,0-1.94,0.19-2.86,0.56s-1.75,0.95-2.47,1.72
	c-0.72,0.77-1.29,1.74-1.72,2.9c-0.43,1.16-0.64,2.54-0.64,4.11c0,1.66,0.22,3.1,0.66,4.3c0.44,1.2,1.02,2.19,1.75,2.96
	c0.73,0.77,1.57,1.34,2.52,1.72c0.95,0.38,1.95,0.56,2.98,0.56c0.98,0,1.94-0.19,2.86-0.56c0.93-0.38,1.75-0.96,2.47-1.73
	c0.72-0.78,1.29-1.75,1.72-2.92c0.43-1.16,0.64-2.54,0.64-4.11c0-1.65-0.22-3.07-0.66-4.27c-0.44-1.2-1.02-2.19-1.75-2.96
	c-0.73-0.77-1.57-1.34-2.52-1.72C196.74,77.91,195.75,77.72,194.72,77.72z"/>
<path class="st1" d="M249.89,68.47c-1,6.15-2.38,12.37-4.15,18.67c-1.77,6.3-3.78,12.52-6.02,18.67H225.5
	c-2.24-6.15-4.24-12.37-6.01-18.67c-1.77-6.3-3.15-12.52-4.15-18.67h11.9c0.3,2.05,0.64,4.13,1.02,6.24
	c0.38,2.11,0.81,4.23,1.28,6.37c0.47,2.14,0.97,4.27,1.51,6.41c0.53,2.14,1.1,4.26,1.72,6.36c0.6-2.1,1.17-4.22,1.71-6.36
	c0.54-2.14,1.05-4.27,1.53-6.41c0.47-2.14,0.9-4.26,1.29-6.37c0.39-2.11,0.73-4.19,1.03-6.24H249.89z"/>
<path class="st1" d="M277.27,77.98h-12.82v4.34h12.11v9.51h-12.11v4.47h12.82v9.51h-24.38V68.47h24.38V77.98z"/>
<path class="st1" d="M281.78,68.47c1.65-0.09,3.27-0.16,4.87-0.21c1.6-0.05,3.19-0.08,4.77-0.08c3.28,0,6.17,0.3,8.7,0.91
	s4.65,1.48,6.37,2.61c1.72,1.14,3.03,2.53,3.93,4.16c0.89,1.64,1.34,3.49,1.34,5.56c0,1.03-0.11,2.01-0.34,2.93
	c-0.23,0.92-0.57,1.78-1.01,2.59c-0.45,0.81-0.99,1.56-1.64,2.26c-0.65,0.7-1.39,1.34-2.23,1.92c1.09,2.14,2.16,4.44,3.22,6.9
	c1.06,2.46,2.09,5.06,3.09,7.79H300.2c-0.61-1.79-1.3-3.6-2.05-5.45c-0.75-1.85-1.58-3.69-2.47-5.53c-0.39,0.05-0.77,0.09-1.16,0.12
	c-0.38,0.03-0.78,0.06-1.18,0.09v10.77h-11.56V68.47z M293.34,86.23c0.09,0,0.16,0,0.21,0c0.05,0,0.12,0,0.21,0
	c1,0,1.89-0.1,2.65-0.3c0.76-0.2,1.41-0.48,1.92-0.85s0.91-0.82,1.17-1.36c0.26-0.54,0.4-1.15,0.4-1.83c0-0.65-0.13-1.23-0.4-1.74
	c-0.26-0.52-0.66-0.96-1.17-1.32s-1.16-0.65-1.92-0.84c-0.77-0.19-1.65-0.29-2.65-0.29c-0.09,0-0.16,0-0.21,0c-0.05,0-0.12,0-0.21,0
	V86.23z"/>
<path class="st1" d="M317.88,94.35c1.44,0.91,2.92,1.6,4.45,2.08c1.53,0.47,3.01,0.71,4.43,0.71c0.6,0,1.11-0.04,1.54-0.12
	c0.43-0.08,0.78-0.19,1.06-0.34c0.28-0.15,0.48-0.34,0.6-0.57c0.12-0.23,0.18-0.49,0.18-0.79c0-0.49-0.22-0.93-0.66-1.31
	c-0.44-0.38-1.01-0.76-1.72-1.12c-0.71-0.36-1.52-0.73-2.44-1.1c-0.92-0.38-1.85-0.81-2.8-1.29c-0.95-0.48-1.88-1.04-2.8-1.67
	c-0.92-0.63-1.73-1.37-2.44-2.23c-0.71-0.86-1.28-1.86-1.72-3.01c-0.44-1.15-0.66-2.47-0.66-3.98c0-1.8,0.33-3.43,0.98-4.89
	c0.66-1.45,1.6-2.69,2.82-3.72c1.23-1.02,2.71-1.81,4.45-2.37c1.74-0.55,3.71-0.83,5.9-0.83c2.12,0,4.03,0.22,5.71,0.66
	c1.69,0.44,3.28,1.08,4.77,1.92l-2.46,8.93c-1.24-0.65-2.51-1.18-3.8-1.59c-1.29-0.41-2.61-0.62-3.93-0.62
	c-0.46,0-0.86,0.04-1.22,0.11c-0.36,0.07-0.66,0.17-0.9,0.32s-0.43,0.32-0.56,0.53c-0.13,0.21-0.2,0.46-0.2,0.74
	c0,0.46,0.22,0.86,0.66,1.22c0.44,0.36,1.01,0.71,1.72,1.05c0.71,0.34,1.52,0.7,2.43,1.06c0.91,0.37,1.84,0.79,2.79,1.26
	c0.95,0.47,1.88,1.02,2.79,1.65c0.91,0.63,1.72,1.38,2.43,2.26c0.71,0.88,1.28,1.89,1.72,3.05c0.44,1.16,0.66,2.5,0.66,4.05
	c0,1.82-0.36,3.47-1.08,4.95c-0.72,1.48-1.72,2.75-3.01,3.8c-1.29,1.05-2.83,1.86-4.62,2.44c-1.8,0.58-3.77,0.87-5.92,0.87
	c-2.38,0-4.49-0.26-6.33-0.79c-1.84-0.52-3.55-1.3-5.12-2.34L317.88,94.35z"/>
</svg>
